<?xml version="1.0" encoding="utf-8"?>
<!-- Generator: Adobe Illustrator 26.0.1, SVG Export Plug-In . SVG Version: 6.00 Build 0)  -->
<svg version="1.1" xmlns="http://www.w3.org/2000/svg" xmlns:xlink="http://www.w3.org/1999/xlink" x="0px" y="0px"
	 viewBox="0 0 148.12 217.94" style="enable-background:new 0 0 148.12 217.94;" xml:space="preserve">
<style type="text/css">
	.st0{fill:#F7F0EB;}
	.st1{fill:#FF3B01;}
	.st2{fill:none;stroke:#FFFFFF;stroke-width:0.5;stroke-miterlimit:10;}
	.st3{fill:#FF3B01;stroke:#FFFFFF;stroke-width:0.5;stroke-miterlimit:10;}
	.st4{fill:#FBF8F5;}
	.st5{fill:none;stroke:#444C3D;stroke-width:0.25;stroke-miterlimit:10;}
	.st6{fill:#F7F0EB;stroke:#444C3D;stroke-width:0.25;stroke-miterlimit:10;}
	.st7{fill:none;}
	.st8{fill:none;stroke:#448F7A;stroke-width:0.5;stroke-miterlimit:10;}
	.st9{fill:#F7F0EB;stroke:#448F7A;stroke-width:0.5;stroke-miterlimit:10;}
	.st10{fill:none;stroke:#FF3B01;stroke-width:0.5;stroke-miterlimit:10;}
	.st11{fill:#F7F0EB;stroke:#FF3B01;stroke-width:0.5;stroke-miterlimit:10;}
	.st12{clip-path:url(#SVGID_00000183961364969867898280000017776611729812073111_);}
</style>
<g id="레이어_3">
</g>
<g id="레이어_1">
	<g>
		<rect class="st1" width="148.12" height="217.94"/>
		<polygon class="st2" points="18.4,8.02 129.72,8.02 141.04,19.34 141.04,198.59 129.72,209.92 18.4,209.92 7.08,198.59 
			7.08,19.34 		"/>
		<g>
			<path class="st3" d="M17.06,15.36L17.06,15.36L17.06,15.36c0.23,3.44,1.58,6.14,3.3,6.6c-1.72,0.46-3.07,3.16-3.3,6.6v0v0
				c-0.23-3.44-1.58-6.14-3.3-6.6C15.48,21.51,16.83,18.8,17.06,15.36z"/>
			<path class="st3" d="M17.06,189.36L17.06,189.36L17.06,189.36c0.23,3.44,1.58,6.14,3.3,6.6c-1.72,0.46-3.07,3.16-3.3,6.6v0v0
				c-0.23-3.44-1.58-6.14-3.3-6.6C15.48,195.51,16.83,192.8,17.06,189.36z"/>
			<path class="st3" d="M131.06,15.36L131.06,15.36L131.06,15.36c0.23,3.44,1.58,6.14,3.3,6.6c-1.72,0.46-3.07,3.16-3.3,6.6v0v0
				c-0.23-3.44-1.58-6.14-3.3-6.6C129.48,21.51,130.83,18.8,131.06,15.36z"/>
			<path class="st3" d="M131.06,189.36L131.06,189.36L131.06,189.36c0.23,3.44,1.58,6.14,3.3,6.6c-1.72,0.46-3.07,3.16-3.3,6.6v0v0
				c-0.23-3.44-1.58-6.14-3.3-6.6C129.48,195.51,130.83,192.8,131.06,189.36z"/>
		</g>
		<g>
			<g>
				<path class="st4" d="M53.18,89.81c-0.11,1.5-0.14,2.22-0.14,3.52v4.7c0,4.26,1.16,5.99,3.99,5.99c2.74,0,4.17-1.56,4.17-5.99
					v-4.7c0-1.31-0.02-2.02-0.14-3.52h0.57c-0.13,1.5-0.14,2.22-0.14,3.52v4.7c0,4.69-1.57,6.44-4.76,6.44
					c-3.33,0-5.44-1.34-5.44-6.44v-4.7c0-1.31-0.04-2.02-0.14-3.52H53.18z"/>
				<path class="st4" d="M76.43,97.16v3c0,1.23,0.02,2.31,0.2,3.95h-0.79c0.18-1.65,0.2-2.72,0.2-3.95v-0.93
					c-0.66,3.25-2.5,5.24-5.72,5.24c-4.18,0-6.89-3.34-6.89-7.69s3.11-7.33,7.08-7.33c2.79,0,4.65,1.45,5.87,3.79l-1.81,0.48
					c-0.54-2.16-1.77-3.99-4.06-3.99c-3.17,0-5.15,3.11-5.15,6.94c0,3.9,1.88,7.19,5.42,7.19c3.2,0,5.08-2.54,5.26-6.71h-0.64
					c-0.81,0-2.56,0.11-4.1,0.72l-0.79-1h7.4v0.29H76.43z"/>
				<path class="st4" d="M81.37,89.81c-0.11,1.5-0.14,2.22-0.14,3.52v10.5h1.5c1.77,0,2.99-0.09,4.99-0.68l-0.52,0.97h-7.9
					c0.14-1.5,0.18-2.22,0.18-3.52v-7.26c0-1.31-0.04-2.02-0.14-3.52H81.37z"/>
				<path class="st4" d="M92.17,97.95v2.65c0,1.31,0.02,2.02,0.13,3.52h-2.04c0.13-1.5,0.14-2.22,0.14-3.52v-2.65l-3.42-6.46
					c-0.36-0.68-0.59-1.04-1.11-1.68h2.34c0.23,0.7,0.41,1.02,0.77,1.68l3.13,5.9l3.06-5.9c0.36-0.7,0.5-0.98,0.79-1.68h0.48
					c-0.47,0.7-0.63,1.02-0.97,1.66L92.17,97.95z"/>
				<path class="st4" d="M29.29,124.6v-7.26c0-1.31-0.04-2.02-0.14-3.52h3.31c3.18,0,5.96,0.73,5.96,3.84
					c0,3.11-2.77,3.84-5.96,3.84h-1.41v3.09c0,1.31,0.04,2.02,0.14,3.52h-2.04C29.26,126.62,29.29,125.9,29.29,124.6z M32.44,121.22
					c2.09,0,4.15-0.71,4.15-3.56c0-2.84-2.06-3.56-4.15-3.56h-1.4v7.12H32.44z"/>
				<path class="st4" d="M51.88,127.85v0.27c-2.95,0-4.29-0.77-5.17-3.27c-1-2.81-2.11-3.34-3.95-3.34h-0.64v3.09
					c0,1.31,0.04,2.02,0.14,3.52h-2.04c0.11-1.5,0.14-2.22,0.14-3.52v-7.26c0-1.31-0.04-2.02-0.14-3.52h3.31
					c3.18,0,5.96,0.73,5.96,3.84c0,2.7-2.07,3.61-4.7,3.81c1.56,0.29,2.86,1.11,3.72,3.25C49.41,127.12,50.22,127.85,51.88,127.85z
					 M43.51,121.22c2.09,0,4.15-0.71,4.15-3.56c0-2.84-2.06-3.56-4.15-3.56h-1.4v7.12H43.51z"/>
				<path class="st4" d="M51.42,120.97c0-4.38,3.42-7.51,7.99-7.51s8.01,3.13,8.01,7.51c0,4.4-3.43,7.51-8.01,7.51
					S51.42,125.37,51.42,120.97z M65.49,120.97c0-3.76-2.29-7.22-6.08-7.22c-3.79,0-6.06,3.47-6.06,7.22c0,3.77,2.27,7.22,6.06,7.22
					C63.2,128.19,65.49,124.74,65.49,120.97z"/>
				<path class="st4" d="M69.37,124.6v-7.26c0-1.31-0.04-2.02-0.14-3.52h3.79c4.45,0,7.28,2.4,7.28,7.15c0,4.56-2.74,7.15-7.28,7.15
					h-3.79C69.34,126.62,69.37,125.9,69.37,124.6z M78.37,120.97c0-4.65-2.24-6.87-5.4-6.87h-1.84v13.73h1.84
					C76.13,127.83,78.37,125.44,78.37,120.97z"/>
				<path class="st4" d="M84.38,113.81c-0.11,1.5-0.14,2.22-0.14,3.52v4.7c0,4.26,1.16,5.99,3.99,5.99c2.74,0,4.17-1.56,4.17-5.99
					v-4.7c0-1.31-0.02-2.02-0.14-3.52h0.57c-0.13,1.5-0.14,2.22-0.14,3.52v4.7c0,4.69-1.57,6.44-4.76,6.44
					c-3.33,0-5.44-1.34-5.44-6.44v-4.7c0-1.31-0.04-2.02-0.14-3.52H84.38z"/>
				<path class="st4" d="M108.24,122.17c-0.82,3.81-2.86,6.31-6.55,6.31c-4.45,0-7.06-3.34-7.06-7.69s3.11-7.33,7.05-7.33
					c2.77,0,4.63,1.45,5.85,3.9l-1.79,0.48c-0.55-2.27-1.79-4.09-4.06-4.09c-3.13,0-5.11,3.11-5.11,6.94c0,3.9,1.75,7.26,5.58,7.26
					c3.13,0,5.06-2.27,5.85-5.78H108.24z"/>
				<path class="st4" d="M118.49,113.81l-0.8,1c-1.52-0.61-3.27-0.72-4.08-0.72h-1.63v6.29h1.14c0.95,0,1.91,0,3.58-0.18v0.64
					c-1.66-0.18-2.63-0.18-3.58-0.18h-1.14v7.15h2c1.77,0,2.99-0.09,4.99-0.68l-0.52,0.97h-8.41c0.14-1.5,0.16-2.22,0.16-3.52v-7.26
					c0-1.31-0.02-2.02-0.16-3.52H118.49z"/>
			</g>
		</g>
	</g>
</g>
<g id="레이어_2">
</g>
<g id="레이어_4">
</g>
</svg>
